<?xml version="1.0" standalone="no"?>
<!DOCTYPE svg PUBLIC "-//W3C//DTD SVG 20010904//EN"
 "http://www.w3.org/TR/2001/REC-SVG-20010904/DTD/svg10.dtd">
<svg version="1.0" xmlns="http://www.w3.org/2000/svg"
 width="700.000000pt" height="700.000000pt" viewBox="0 0 700.000000 700.000000"
 preserveAspectRatio="xMidYMid meet">
<metadata>
Created by potrace 1.14, written by Peter Selinger 2001-2017
</metadata>
<g transform="translate(0.000000,700.000000) scale(0.100000,-0.100000)"
fill="#000000" stroke="none">
<path d="M1470 6985 c-233 -50 -440 -267 -477 -500 -4 -22 -7 -1372 -7 -3000
l0 -2960 27 -86 c60 -192 211 -345 407 -412 l65 -22 1985 -2 c2178 -3 2053 -6
2188 57 166 77 283 218 338 405 17 57 18 220 19 3015 1 2311 -2 2968 -12 3016
-39 193 -157 349 -328 434 -145 73 3 68 -2175 68 -1640 0 -1976 -2 -2030 -13z
m3670 -1626 l0 -547 -1640 0 -1640 0 0 547 0 547 1640 0 1640 0 0 -547z
m-2629 -1536 c4 -21 5 -630 1 -640 -2 -8 -89 -11 -328 -12 l-324 0 0 329 0
330 325 0 c179 0 326 -3 326 -7z m1317 -321 l-3 -327 -328 -3 -327 -2 0 330 1
330 330 0 329 -1 -2 -327z m1312 -1 l0 -330 -327 2 -328 2 -1 315 c0 173 2
321 4 328 3 9 78 12 328 12 l324 0 0 -329z m-2640 -770 c13 -1 15 -43 15 -320
0 -176 -3 -322 -7 -326 -5 -5 -545 -10 -635 -6 -10 1 -13 73 -13 329 l0 327
313 -1 c171 -1 319 -2 327 -3z m1328 -324 l2 -327 -27 -1 c-30 -1 -586 -1
-615 0 -17 1 -18 23 -18 324 0 178 2 326 4 328 2 2 150 4 328 4 l323 0 3 -328z
m1312 -547 l0 -875 -317 1 c-175 1 -323 2 -328 3 -11 1 -15 1733 -4 1741 4 3
152 5 328 5 l321 0 0 -875z m-2625 -550 l0 -325 -325 0 -325 0 -3 328 -2 327
327 -2 328 -3 0 -325z m1313 3 l-3 -328 -325 0 -325 0 -3 328 -2 327 330 0
330 0 -2 -327z"/>
</g>
</svg>
